<svg id="b909ac03-ef56-42fe-b1cc-eac8b3f1ee2c" data-name="Layer 1" xmlns="http://www.w3.org/2000/svg" xmlns:xlink="http://www.w3.org/1999/xlink" viewBox="0 0 500 447.3"><defs><clipPath id="fbbbd8a8-a751-4a39-8123-6491e45aae82" transform="translate(0.07 1.17)"><path d="M301.45,109.57s41.39,11.21,64.3-15.92S423,37,452.56,38.8s2.41,103.08-9.65,116.34a61.37,61.37,0,0,1,2.14,15.21c.11,7.46-7.9,41.06-30.2,48.3Z" fill="none"/></clipPath><clipPath id="a4c47cbc-7e06-4045-aec2-1e42c8146987" transform="translate(0.07 1.17)"><path d="M224.69,104.51S190.93,108.73,162,61.1,123.42,6.85,100.51.22,78.09,145,87.73,178.12c0,0,36.69-32.9,55.89-49.44Z" fill="none"/></clipPath></defs><path d="M83.61,183.89s47.64-75.16,141.08-79.38S402.52,128,427.24,223.87s15.07,175.42-41.59,197.72S162.42,481.27,90.47,371c0,0-29.75-39.77-15.28-95.84C75.19,275.12,49.83,222,83.61,183.89Z" transform="translate(0.07 1.17)" fill="#e1d5c9"/><path d="M301.45,109.57s41.39,11.21,64.3-15.92S423,37,452.56,38.8s2.41,103.08-9.65,116.34c0,0-6.35,10.85-2.87,18.69s-.14,30.74-22.44,38Z" transform="translate(0.07 1.17)" fill="#dcb9ad"/><path d="M231.26,104.27S190.93,108.73,162,61.1,123.42,6.85,100.51.22s-18.85,141.54-9.2,174.7c0,0,31.33-32.91,59-52.68Z" transform="translate(0.07 1.17)" fill="#cec0b3"/><path d="M80.14,113.55C74.52,97.22,81,53,86.3,28.2S98.41,5.54,106.84,6.6s31.09,25.29,37.41,38.46,47.94,52.32,47.94,52.32,20.77,6.9,15.33,12.25c0,0-54.05,15.36-65.86,20.74s-30.48,31.66-43.14,40c-6.14,4,1.31-2.77-2.18,0s-16.2-56.8-16.2-56.8" transform="translate(0.07 1.17)" fill="#ad7d7f"/><path d="M206.33,260.48s6.19,15.4,22.28,10.79S214.58,255.94,206.33,260.48Z" transform="translate(0.07 1.17)" fill="#4e0d0b"/><path d="M249.94,273.53a38.36,38.36,0,0,0,24.75-.86C288.31,267.65,249.52,259.6,249.94,273.53Z" transform="translate(0.07 1.17)" fill="#4f0f0f"/><path d="M235.69,296v22.72c0,2.36,2,2.36,2,0V296c0-2.35-2-2.36-2,0Z" transform="translate(0.07 1.17)" fill="#ad7d7f"/><path d="M206.33,253.12s41.27-21.53,78,8.72c0,0,8.68,10.76-11.21,11.36,0,0-2.05-7.14-8.08-7.14s-12.66,0-10.85,6l3.62,13.26s-12.66,14.47-22.91,12.06-18.69-14.47-13.26-21.7c0,0,6-5.43,3-10.25s-16-.91-16-.91S202.93,265.28,206.33,253.12Z" transform="translate(0.07 1.17)" fill="#ac6766"/><g clip-path="url(#fbbbd8a8-a751-4a39-8123-6491e45aae82)"><path d="M452.59,34.15s-83.38,30.76-93.72,80.38,30,87.86,37.73,91,43.66,1,43.66,1S487.9,49.37,452.59,34.15Z" transform="translate(0.07 1.17)" fill="#ad7d7f"/></g><path d="M434.68,201.32s-4.05,26.47,4.9,51.19c10.67,29.47-9,51.24-20.5,33.75s-21.1-42.8-21.1-42.8-10.85,19.29-19.89,13.27-24.71-27.74-26.52-44a110.52,110.52,0,0,1,1.2-30.84s-15.07-7.47-19.89-13-8.44-19.43-8.44-19.43-16.88,1.81-19.89-4.82-37.38-26.53-16.28-33.76c0,0,14.44-6.83,44-.8,0,0,22.93-9.45,36.8-22.71s23.76-24.18,27.38-23.58S375.72,94.9,369.7,103.43s-11,23.93-9.18,31.77-.16,14.28,19.84,50.08C380.36,185.28,414.46,218.62,434.68,201.32Z" transform="translate(0.07 1.17)" fill="#3e312f"/><g clip-path="url(#a4c47cbc-7e06-4045-aec2-1e42c8146987)"><path d="M105.89-.12s28-1.51,45.56,34.18c21.78,44.19,63,62,78.2,71l-22.32,5.87s-10.06,8.76-80.21-88c-10-13.79-24.21-16.39-28.57-16.39S90,12,87.38,29.14c-2.14,14-5.67-2.82-5.67-2.82S83.56-7.48,105.89-.12Z" transform="translate(0.07 1.17)" fill="#cec0b3"/></g><path d="M391.58,71.05S421,45.2,443.8,40.07c.75-.17,3.33-.07,4.07-.18C471,36.4,465.35,105,448.32,143l-5.41,12.19s14.21-16.71,20.54-48.16S467.1,54,459.67,38.44,405,53.26,395.06,61.94,391.58,71.05,391.58,71.05Z" transform="translate(0.07 1.17)" fill="#cec0b3"/><path d="M87.73,178.12S78,160,79.28,125.11c0,0-5.86-77.16,3.2-95.87L85.05,29l2.33.11s-10.2,79.61.09,96.12,7.41,19.3,7.41,19.3l-5.35,3.58s9,13.77,9,22.21S90.29,178.62,87.73,178.12Z" transform="translate(0.07 1.17)" fill="#3e312f"/><path d="M169.07,313.8s-8.4-8.87-14.58-4.63S166.13,317.52,169.07,313.8Z" transform="translate(0.07 1.17)" fill="#ad7d7f"/><path d="M104.24,299.83c-14.38-27.33,22.51-56.48,24.08-57.71l2,2.54c-.37.28-36.34,28.72-23.21,53.67Z" transform="translate(0.07 1.17)" fill="#d3bdae"/><path d="M357.1,334.53l-2-2.5c26.53-21.51,5.75-65.13,5.53-65.57l2.9-1.41C363.72,265.51,385.59,311.43,357.1,334.53Z" transform="translate(0.07 1.17)" fill="#d3bdae"/><path d="M299.67,227s-12.16-24.85,16.06-41.67,43.66,16.5,44.64,20.82c.79,3.51,13.7,20.77-13.39,30.51h-2.15S306.29,238.05,299.67,227Z" transform="translate(0.07 1.17)" fill="#3e312f"/><path d="M194,213.65s-17.45,12.87-41.17,0c0,0-29.18-17.37,1.66-38.73s48.46,2.86,50.73,15.64-2.86,29.81-8,31.1-7.39-.83-3.22-5.39S194,213.65,194,213.65Z" transform="translate(0.07 1.17)" fill="#3e312f"/><path d="M143.61,200.14s3.21-25.7,22.49-28.27,33.4,6.78,35.33,16.08-4.09,28.8-18.75,30.93S142.33,213,143.61,200.14Z" transform="translate(0.07 1.17)" fill="#9bad63"/><path d="M150.54,188.32s7.87-14.49,27-13.34,15.07,23.19,12.18,26.67-10.15,14.52-30.3,10.16S150.54,188.32,150.54,188.32Z" transform="translate(0.07 1.17)" fill="#3e312f"/><path d="M300.05,220.54S295,194.32,321.5,188s36.57,14.61,36,25.7-1.4,19.78-14,22.87S304.54,234.28,300.05,220.54Z" transform="translate(0.07 1.17)" fill="#9bad63"/><path d="M315.41,197.36a18.44,18.44,0,0,0-.32,27.43,22,22,0,0,0,29.52.26,18.46,18.46,0,0,0,.32-27.44A22,22,0,0,0,315.41,197.36Z" transform="translate(0.07 1.17)" fill="#3e312f"/><path d="M313.76,214.4a2.49,2.49,0,0,0,0,3.7,3,3,0,0,0,4,0,2.48,2.48,0,0,0,.05-3.69A3,3,0,0,0,313.76,214.4Z" transform="translate(0.07 1.17)" fill="#fff"/><path d="M331.78,203a4.18,4.18,0,0,0-.07,6.22,5,5,0,0,0,6.68.06,4.18,4.18,0,0,0,.07-6.22A5,5,0,0,0,331.78,203Z" transform="translate(0.07 1.17)" fill="#fff"/><path d="M180.71,188.7a2.49,2.49,0,0,0,0,3.7,3,3,0,0,0,4,0,2.49,2.49,0,0,0,0-3.7A3,3,0,0,0,180.71,188.7Z" transform="translate(0.07 1.17)" fill="#fff"/><path d="M161.12,194.44a4.17,4.17,0,0,0-.07,6.21,5,5,0,0,0,6.68.06,4.18,4.18,0,0,0,.07-6.22A5,5,0,0,0,161.12,194.44Z" transform="translate(0.07 1.17)" fill="#fff"/><path d="M297.46,219.22s-1.59,16.73,4,14.89S297.66,220.63,297.46,219.22Z" transform="translate(0.07 1.17)" fill="#3e312f"/><path d="M235.81,318.8c-3.33,3.83-9.92,5.17-14.65,5.78-19.7,2.52-40.41-5.17-58.12-12.83-1.45-.63-2.72,1.51-1.25,2.15,16,6.93,33.25,13.13,50.88,13.56,7.39.18,15.6-.66,22-4.66a12.81,12.81,0,0,0,2.88-2.24c1-1.21-.71-3-1.77-1.76Z" transform="translate(0.07 1.17)" fill="#ad7d7f"/><path d="M236.91,321.21c5.23,3.94,12.28,6.09,18.52,7.66,18.65,4.7,38.36,3.54,57.11.11,1.58-.28.91-2.69-.66-2.4-18.51,3.38-38.07,4.51-56.46-.28-5.84-1.53-12.34-3.55-17.25-7.24-1.28-1-2.53,1.19-1.26,2.15Z" transform="translate(0.07 1.17)" fill="#ad7d7f"/><path d="M300.12,328.88s8.4-8.87,14.58-4.63S303.06,332.6,300.12,328.88Z" transform="translate(0.07 1.17)" fill="#ad7d7f"/><path d="M241.15,394.06c-2.39-.08-4.84-.18-7.33-.29-44.72-2.13-76.76-40.3-77.08-40.69l1.81-1.46c.31.38,31.72,37.77,75.38,39.84,47.43,2.25,69.14-3.55,80.11-21.41l2,1.2C303.71,391.33,278.2,395.27,241.15,394.06Z" transform="translate(0.07 1.17)" fill="#d3bdae"/><path d="M250.39,120.94a71.16,71.16,0,0,0,1.19-15.35A88,88,0,0,0,244,70.51c-.24-.51-2.49.28-2.34.63a87.78,87.78,0,0,1,7.62,34.4,71.26,71.26,0,0,1-1.14,15.84c-.09.43,2.18.11,2.29-.44Z" transform="translate(0.07 1.17)" fill="#d3bdae"/><path d="M236.85,123.43c2.68-7.94,3.28-16.88,3.11-25.17-.43-20.85-7.89-40.63-20.09-57.42-.39-.53-2.48.43-2.34.63,12,16.53,19.44,36,20.07,56.46.26,8.53-.29,17.77-3,25.93-.12.36,2.1.13,2.29-.43Z" transform="translate(0.07 1.17)" fill="#d3bdae"/><path d="M223.21,122a53.79,53.79,0,0,0-1.9-12,104.61,104.61,0,0,0-12.73-29.27c-.55-.89-2.78,0-2.13,1A102.77,102.77,0,0,1,219,110.65a50.91,50.91,0,0,1,1.87,11.56c0,1.23,2.38.88,2.37-.17Z" transform="translate(0.07 1.17)" fill="#d3bdae"/><path d="M102.24,239.64c-32.81-7.56-67.57-9.39-101.1-8.88-1.33,0-1.79,1.74-.2,1.72,33.31-.51,67.89,1.36,100.5,8.87,1.15.27,2.34-1.35.8-1.71Z" transform="translate(0.07 1.17)" fill="#d3bdae"/><path d="M300.53,139.48c-.57-8.44,1.19-17.34,3.53-25.38,5.78-19.8,17.93-36.86,33.87-49.82.43-.35-1.68-.13-2.11.22-16,13-28.25,30.14-34.05,50-2.36,8.1-4.15,17.08-3.57,25.58,0,.35,2.37,0,2.33-.63Z" transform="translate(0.07 1.17)" fill="#d3bdae"/><path d="M305.9,148.26a44.6,44.6,0,0,1,2.1-15.08,60.06,60.06,0,0,1,20.13-29.62c.44-.36-1.67-.13-2.1.21a60.6,60.6,0,0,0-20.32,29.84,45,45,0,0,0-2.14,15.28c0,.35,2.37,0,2.33-.63Z" transform="translate(0.07 1.17)" fill="#d3bdae"/><path d="M293.56,135.48a44.68,44.68,0,0,1-3.16-14.7,60.32,60.32,0,0,1,8.85-35c.13-.21-1.95-.13-2.29.43A60.64,60.64,0,0,0,288,120.82a45.57,45.57,0,0,0,3.2,15.29c.23.51,2.49-.27,2.33-.63Z" transform="translate(0.07 1.17)" fill="#d3bdae"/><path d="M499.2,311.2c-32.8-7.56-67.57-9.39-101.09-8.88-1.33,0-1.79,1.74-.21,1.71,33.32-.5,67.9,1.37,100.5,8.88,1.15.26,2.34-1.35.8-1.71Z" transform="translate(0.07 1.17)" fill="#d3bdae"/><path d="M497.63,336.8C467,323,433.22,314.39,400.25,308.33c-1.16-.21-2.36,1.42-.81,1.71,32.78,6,66.34,14.6,96.85,28.34,1,.44,2.7-1,1.34-1.58Z" transform="translate(0.07 1.17)" fill="#d3bdae"/><path d="M465.69,338.65c-20.9-9.41-43.86-15.25-66.32-19.38-1.15-.21-2.36,1.42-.8,1.7,22.26,4.1,45.05,9.93,65.78,19.26,1,.44,2.69-1,1.34-1.58Z" transform="translate(0.07 1.17)" fill="#d3bdae"/><path d="M91.92,246.56c-23-1.16-46.62,1.75-69.16,6.1-1.48.29-1,1.89.43,1.61,22.11-4.26,45.35-7.14,67.93-6,1.14,0,2.38-1.63.8-1.71Z" transform="translate(0.07 1.17)" fill="#d3bdae"/><path d="M98,265.42c-23-1.16-46.62,1.75-69.16,6.1-1.48.28-1,1.89.43,1.61,22.11-4.27,45.34-7.14,67.93-6,1.14.06,2.38-1.62.8-1.7Z" transform="translate(0.07 1.17)" fill="#d3bdae"/></svg>