<svg id="bb8a5cef-72e6-424c-b473-4c2757bd8ab4" data-name="e346d7b3-c8f2-4bc5-a637-f3fe0b89d960" xmlns="http://www.w3.org/2000/svg" xmlns:xlink="http://www.w3.org/1999/xlink" viewBox="0 0 507.56 313.99"><defs><clipPath id="ac43cb6e-ccbe-4ad9-adc2-b18c0bcd5511" transform="translate(0 0)"><path d="M265.53,153.49S174,136.3,168.29,138.38s-27.57,3.12-64.49,42.12c0,0-16.64,10.4-18.72,16.12,0,0-11.13-1-32.24,17.69,0,0-1.56,5.2-8.84,10.4s-25.66,34.84-25.66,34.84S8.42,280.15,6.2,304.09l491.71-3.46s7.8-65-6.76-70.2S418.43,204.94,409.06,193,394,181,394,181l-12.5-19.22Z" fill="none"/></clipPath><clipPath id="b8b5a256-82a2-4e9d-9dfc-944e3f08f967" transform="translate(0 0)"><path d="M422.79,46.39S402.9-7.61,340.37.91s-79.51,85.62-79.29,94.93v5.68s-11.84,15.79-6,40.67c0,0,2.54,5.33,2.28,8.89s-2,17.77-2,17.77-.51,4.58,3.3,6.61c0,0-1.77,43.67,34.54,43.17s60.18,5.58,84.56-37.59l6.86-17.77s3.81.51,11.17-6.6,15-19,18.28-36.57c0,0,.76-10.67-5.58-7.37C408.46,112.73,434.59,73.49,422.79,46.39Z" fill="none"/></clipPath><clipPath id="e80f93b0-cc57-489c-9abd-f746a8ecc319" transform="translate(0 0)"><path d="M389.3,238.75s-13.52-26.52-13.52-29.12-6.24-25-5.2-38.49-2.8-17.65-2.8-17.65-2.4-18.75,2.8-24.47c0,0,6.76-8.32-6.76-5.2S350.3,141.5,350.3,141.5s-32.24-28.6-34.3-29.64S288.42,94.7,278.53,96.78c0,0-5.72,3.12-4.16,7.8,0,0-12-4.68-16.12-1.56s-2.6,8.84,10.92,21.84c0,0-11.35-1.56-12.95,4.68s12.43,19.24,12.43,19.24-5.09-3.63-8.83-.9c-2.26,1.65-3.65,10.6,6.23,19.79a208.13,208.13,0,0,1,18.2,19.59s9.89,34.85,42.65,51.49l2.6,17.68s-18.2,8.32-17.16,12.48,7.8,10.4,7.8,10.4l7.74,22.9,91-.73s1.67,2.79-3.53-3.45S389.3,238.75,389.3,238.75Z" fill="none"/></clipPath></defs><path d="M265.53,153.49S174,136.3,168.29,138.38s-27.57,3.12-64.49,42.12c0,0-16.64,10.4-18.72,16.12,0,0-11.13-1-32.24,17.69,0,0-1.56,5.2-8.84,10.4s-25.66,34.84-25.66,34.84S10,270.6,0,304.13l497.16-1.92s8.55-66.58-6-71.78-72.73-25.49-82.1-37.43S394,181,394,181l-12.5-19.22Z" transform="translate(0 0)" fill="#512034"/><g clip-path="url(#ac43cb6e-ccbe-4ad9-adc2-b18c0bcd5511)"><path d="M120.16,164.81s29.28,5.76,35.77,10.4,116.35,34.42,130.57,37.65,151.19,20,218,45.55c0,0,7.28-2.66-.6-23.08S361,131.86,325.27,141.6s-181.91-13.45-181.91-13.45Z" transform="translate(0 0)" fill="#261b10"/><path d="M148,207.28c-10.21,27.14-21.42,54.13-34.51,80A204.78,204.78,0,0,1,99.26,312c-.92,1.32,1.1,2.8,2,1.47,10.29-14.78,17.91-31.56,25.3-47.92q10.5-23.43,19.89-47.42,2-4.94,3.83-9.9a1.26,1.26,0,0,0-2.34-.91Z" transform="translate(0 0)" fill="#331422"/></g><path d="M422.79,46.39S402.9-7.61,340.37.91s-79.51,85.62-79.29,94.93v5.68s-11.84,15.79-6,40.67c0,0,2.54,5.33,2.28,8.89s-2,17.77-2,17.77-.51,4.58,3.3,6.61c0,0-1.77,43.67,34.54,43.17s60.18,5.58,84.56-37.59l6.86-17.77s3.81.51,11.17-6.6,15-19,18.28-36.57c0,0,.76-10.67-5.58-7.37C408.46,112.73,434.59,73.49,422.79,46.39Z" transform="translate(0 0)" fill="#cc9285"/><g clip-path="url(#b8b5a256-82a2-4e9d-9dfc-944e3f08f967)"><path d="M418.61,37s.28.9.66,2.39c1.44,5.61,4.35,19.53-.66,24.92-6.34,6.83-9.27-8.78-27.8,12.19s10.73,7.32-1.95,38.05c0,0-17.07,8.29-20.49,13.17S367,143,367,143s9.7-17.78,32.63-24.61l13.65-9.07S444,57.92,418.61,37Z" transform="translate(0 0)" fill="#6b6b6b"/></g><path d="M389.3,238.75s-13.52-26.52-13.52-29.12-6.24-25-5.2-38.49-6.76-17.65-6.76-17.65,1.56-18.75,6.76-24.47c0,0,6.76-8.32-6.76-5.2S350.3,141.5,350.3,141.5s-32.24-28.6-34.3-29.64S288.42,94.7,278.53,96.78c0,0-5.72,3.12-4.16,7.8,0,0-12-4.68-16.12-1.56s-2.6,8.84,10.92,21.84c0,0-11.35-1.56-12.95,4.68s12.43,19.24,12.43,19.24-7.28-2.6-8.32,0-4.16,9.7,5.72,18.89a208.13,208.13,0,0,1,18.2,19.59s9.89,34.85,42.65,51.49l2.6,17.68s-15.85,6.49-14.81,10.65,5.45,12.23,5.45,12.23l8,23.55,89.26-.34s-1.27-2.8-2-4.49C411.88,290.67,389.3,238.75,389.3,238.75Z" transform="translate(0 0)" fill="#842f49"/><path d="M397.79,129.9h0l.41-.51c.44-.56.9-1.1,1.36-1.64a39.86,39.86,0,0,1,4.14-4.28,14.12,14.12,0,0,1,2.17-1.6,4,4,0,0,1,.92-.42,1.59,1.59,0,0,1,.81-.12h0l.2.06c-.09,0,.15.09.19.12a2.34,2.34,0,0,1,.7,1,6.69,6.69,0,0,1,.23,3.11,18.42,18.42,0,0,1-1.25,4.89c-.35.9,1.1,1.29,1.45.4a19.78,19.78,0,0,0,1.23-4.66c.28-2,.32-5.08-1.83-6.16-1.58-.79-3.42.38-4.66,1.31a33,33,0,0,0-4.75,4.55c-.93,1-1.84,2.13-2.69,3.25a.75.75,0,1,0,1.3.76h0Z" transform="translate(0 0)" fill="#a56d5e"/><path d="M387.34,135.48l.12.09c.15.09-.09-.09,0,0l.2.18a4.36,4.36,0,0,1,.85,1.06,6.48,6.48,0,0,1,.28,5,14.28,14.28,0,0,1-.78,2,17.69,17.69,0,0,0-1,1.93c-.07.21-.11.46-.16.68a9.91,9.91,0,0,0-.21,3.3,2.63,2.63,0,0,0,2,2.49,4,4,0,0,0,2.27-.37,4.91,4.91,0,0,0,2.24-1.39c.78-1.24,1.32-2.67,2-3.94a26.54,26.54,0,0,1,1.47-2.4,3.52,3.52,0,0,1,1.65-1.35,19.07,19.07,0,0,0,3-1.66,1.93,1.93,0,0,0,.94-1.48,3.29,3.29,0,0,0-.51-1.42,5.45,5.45,0,0,1-.6-2.16c-.07-1-1.57-1-1.51,0a7.29,7.29,0,0,0,.48,2.21q.17.39.36.78c.06.1.28.55.23.43l.06.21c0-.15-.06.05,0-.1,0,0,.08,0,0,.07l-.18.17a11.21,11.21,0,0,1-2.23,1.28,7.17,7.17,0,0,0-2.3,1.41,16.15,16.15,0,0,0-1.38,2c-.89,1.46-1.68,3-2.44,4.53-.1.19-.2.39-.29.59l-.06.14c.13-.19-.12,0-.31.11a5.79,5.79,0,0,1-2.26.91.8.8,0,0,1-.85-.36,2.63,2.63,0,0,1-.3-1.23,9,9,0,0,1,.29-2.68,6.19,6.19,0,0,1,.72-1.43,15.32,15.32,0,0,0,1.37-3.63c.53-2.53.06-5.8-2.35-7.27a.75.75,0,1,0-.76,1.3Z" transform="translate(0 0)" fill="#a56d5e"/><path d="M278.09,83.68c3.78,3.88,8.3,8.41,13.43,10.41a15.94,15.94,0,0,0,3.21.6,23.22,23.22,0,0,1,4,1.26,77.71,77.71,0,0,1,10.15,4.9,52.05,52.05,0,0,1,4.71,2.93c.62.44,2.12,1.29,2.3,2.14s1.64.55,1.45-.4c-.38-1.82-3.3-3.28-4.68-4.16a81.08,81.08,0,0,0-10-5.36c-2.64-1.2-5.47-2.52-8.38-2.86-3.42-.39-6.21-2.61-8.81-4.74a76.11,76.11,0,0,1-6.29-5.76c-.67-.69-1.74.37-1.06,1.07Z" transform="translate(0 0)" fill="#a56d5e"/><path d="M278.09,72.69a101.7,101.7,0,0,0,22.2,14.49c5.9,2.69,12.37,3.31,18.31,5.95a64.17,64.17,0,0,1,8.82,4.78c1.2.78,4.32,2.35,4.83,3.85.31.91,1.77.52,1.45-.4-.41-1.22-1.86-2.13-2.83-2.87a56.07,56.07,0,0,0-8-5,58.07,58.07,0,0,0-9.65-4c-3.15-1-6.4-1.35-9.48-2.51-8.92-3.35-17.25-9.29-24.55-15.36-.74-.61-1.81.45-1.06,1.07Z" transform="translate(0 0)" fill="#a56d5e"/><path d="M273.81,94.81a29.4,29.4,0,0,0,4.08,4.41,38.2,38.2,0,0,0,11.52,7.22c.9.36,1.29-1.09.4-1.45a36.17,36.17,0,0,1-11-6.95A38.19,38.19,0,0,1,276,95.16l-.74-.9c-.13-.16.06.08-.09-.12l-.07-.09c-.56-.78-1.87,0-1.3.76Z" transform="translate(0 0)" fill="#a56d5e"/><path d="M341.13,140.76a81.14,81.14,0,0,1,18.19-27.22,38.62,38.62,0,0,1,11-7.59.51.51,0,0,0,.21-.68.5.5,0,0,0-.62-.23c-7.26,3.21-13.05,8.95-17.79,15.1a96.45,96.45,0,0,0-10.22,16.59c-.59,1.2-1.18,2.42-1.69,3.66a.51.51,0,0,0,1,.37Z" transform="translate(0 0)" fill="#a56d5e"/><path d="M351.44,146.29c0,.15-.05-.22-.08-.35-.08-.43-.14-.85-.18-1.28a19.32,19.32,0,0,1,.11-4.56,27.05,27.05,0,0,1,7.21-14.41,48.64,48.64,0,0,1,11.73-9.09c.56-.32-.05-1.12-.6-.8-10.13,5.85-20.42,15.82-19.48,28.53a11.62,11.62,0,0,0,.36,2.34c.17.62,1.1.24.93-.38Z" transform="translate(0 0)" fill="#a56d5e"/><path d="M265.73,167.06c-.59,3.26-.62,7.47,1.35,10.28,1.62,2.33,4.35,2.85,7,2.4a49.48,49.48,0,0,0,6.44-1.66,8.2,8.2,0,0,0,2.52-1c.88-.67.17-1.39-.66-1.45-.64-.06-.64,1,0,1h.21a1.15,1.15,0,0,1-.12-.37c0-.12.12-.11-.15,0a12.38,12.38,0,0,1-2.64,1,49.58,49.58,0,0,1-5.88,1.48c-2.29.38-4.69-.06-6-2.12a10.83,10.83,0,0,1-1.38-5.62,19.91,19.91,0,0,1,.26-3.7c.11-.63-.85-.9-1-.27Z" transform="translate(0 0)" fill="#a56d5e"/><path d="M263.71,179.76c.9.83,1.78,1.69,2.64,2.57,1.31,1.34,2.41,3,3.84,4.2,2.57,2.13,6.35,3.09,9.57,3.57a58.28,58.28,0,0,0,8.46.2H295a.5.5,0,0,0,0-1h-6.37a68.86,68.86,0,0,1-8-.1c-3.26-.37-7.39-1.33-9.91-3.58-1.31-1.18-2.36-2.73-3.6-4-.86-.88-1.74-1.74-2.64-2.57-.47-.44-1.19.27-.71.71Z" transform="translate(0 0)" fill="#a56d5e"/><path d="M263.71,186.89a41,41,0,0,0,5,4c2.91,2,6.3,3.94,9.91,4.14a.5.5,0,0,0,0-1c-3.48-.19-6.76-2.15-9.55-4.1a40.1,40.1,0,0,1-4.65-3.77c-.47-.45-1.18.26-.71.71Z" transform="translate(0 0)" fill="#a56d5e"/><g clip-path="url(#e80f93b0-cc57-489c-9abd-f746a8ecc319)"><path d="M314.8,265.88s2.62,10.85,29.74,1.3l-4.7-14S320.83,257.48,314.8,265.88Z" transform="translate(0 0)" fill="#722941"/><polyline points="391.36 243.95 380.73 112.04 269.5 81.06 230.69 96.59 249.88 191.92 328.23 247.78" fill="#dda692"/><path d="M372.36,125.2a7.12,7.12,0,0,0-5.49,1.27,5.59,5.59,0,0,0-1.8,4.45,2.69,2.69,0,0,0,1.82,2.74,3.89,3.89,0,0,0,2.14,0,.4.4,0,1,0-.22-.77l-.43.1h-1a1.77,1.77,0,0,1-1.52-1.67,4.94,4.94,0,0,1,1.35-4.09,5.19,5.19,0,0,1,3-1.22,6.84,6.84,0,0,1,1.43,0h.51c.51.08.73-.7.22-.78Z" transform="translate(0 0)" fill="#b78879"/><path d="M282.88,97c1.56.5,3.62,1.56,4.28,3.2s-.58,3.15-1.69,4.19a16.26,16.26,0,0,1-1.65,1.33,5.07,5.07,0,0,0-.54.36s-.09.11,0,.1-.1,0-.14,0a8.3,8.3,0,0,1-1.78-.31,14.72,14.72,0,0,1-6.92-3.13c-.38-.35-.95.22-.56.57a15,15,0,0,0,6.71,3.21,23.11,23.11,0,0,0,2.32.44,2.41,2.41,0,0,0,.38,0c.34,0,.71-.38,1-.57a10.37,10.37,0,0,0,1-.77c1.45-1.17,3.13-2.9,2.86-4.94a4.9,4.9,0,0,0-2.41-3.22,11,11,0,0,0-2.61-1.25c-.49-.16-.7.62-.21.77Z" transform="translate(0 0)" fill="#b78879"/><path d="M273.83,104.2q4.41,3.72,8.95,7.31c1.92,1.52,3.86,3,5.87,4.44,1.78,1.25,3.74,2.15,5.57,3.33a43.86,43.86,0,0,1,8.72,7.3,38.94,38.94,0,0,0,4.93,5.18c5.27,4.13,11.81,7.65,18.42,8.93.51.1.72-.68.22-.77a43.7,43.7,0,0,1-19.05-9.51c-2-1.72-3.42-4-5.31-5.8a47.34,47.34,0,0,0-7.53-6c-1.7-1.1-3.54-1.94-5.21-3.09-2.24-1.54-4.38-3.22-6.5-4.9q-4.32-3.42-8.52-7c-.39-.33-1,.24-.56.57Z" transform="translate(0 0)" fill="#b78879"/><path d="M264.21,102.35a14,14,0,0,1,2.24,1.4c1.08.81,2.41,2,2.48,3.45.1,1.86-2,3.08-3.55,3.44a12,12,0,0,1-5.62-.32,18.09,18.09,0,0,1-3.2-1.11c-.46-.21-.87.48-.4.7,2.76,1.29,6.2,2.17,9.24,1.55,1.8-.37,3.89-1.6,4.28-3.55.33-1.64-.79-3.11-1.94-4.14a14.1,14.1,0,0,0-3.13-2.11C264.15,101.43,263.74,102.12,264.21,102.35Z" transform="translate(0 0)" fill="#b78879"/><path d="M263.86,125.24a17.75,17.75,0,0,1,2.7,1.94c1.18,1,2.77,2.48,2.76,4.17a4.42,4.42,0,0,1-1.61,2.8,4,4,0,0,1-2.7,1.13,12,12,0,0,1-3.16-.3,6.17,6.17,0,0,1-2.65-1.62,17.89,17.89,0,0,1-3.19-4c-.27-.44-1,0-.7.4a19.56,19.56,0,0,0,3.08,3.94,8.07,8.07,0,0,0,2.9,2,11.34,11.34,0,0,0,3.43.44,5,5,0,0,0,3-.89,6.85,6.85,0,0,0,2.24-2.84c.68-1.84-.69-3.68-1.91-4.91a18.29,18.29,0,0,0-3.77-2.9.4.4,0,1,0-.41.69h0Z" transform="translate(0 0)" fill="#b78879"/><path d="M267.16,148.27a18.24,18.24,0,0,1,4.54,2.82,14.62,14.62,0,0,1,3.13,3.57,10.66,10.66,0,0,0,2.5,2.81,20.12,20.12,0,0,0,3.14,2,15.35,15.35,0,0,1,2.19,1.17c1.2.91,2.44,1.79,3.65,2.7,1.95,1.48,4.92,3.54,5.32,6.16.08.51.85.29.77-.22-.34-2.21-2.42-4-4-5.33s-3.35-2.36-4.93-3.66c-1.35-1.11-3.07-1.7-4.54-2.66a10.84,10.84,0,0,1-3.38-3.36,15.55,15.55,0,0,0-3-3.52,19.05,19.05,0,0,0-5.15-3.24c-.48-.19-.69.58-.21.78Z" transform="translate(0 0)" fill="#b78879"/><path d="M265.73,123.63q3.52,2.46,6.87,5.15a67.16,67.16,0,0,1,5.11,4.42,25.09,25.09,0,0,1,3,3.74c.44.62,1.07.73,1.83,1q2.73,1.08,5.4,2.31c1.78.83,2.9,2.34,4.5,3.49,1.28.92,1.45,2,2.26,3.22,2,3,5.85,4.66,8.69,6.84.41.32.81-.38.41-.69-2.75-2.1-6.46-3.71-8.33-6.67-.67-1.05-1.06-2.55-2.08-3.4a18.94,18.94,0,0,0-4-3c-1.75-.85-3.53-1.62-5.33-2.36l-2-.81a3.83,3.83,0,0,1-.56-.22c-.28-.19-.09-.08,0,0-.31-.38-.47-1-.77-1.43a16.72,16.72,0,0,0-1.65-1.92,56.88,56.88,0,0,0-4.91-4.4c-2.58-2.11-5.25-4.13-8-6-.42-.3-.83.39-.41.69Z" transform="translate(0 0)" fill="#b78879"/><path d="M328.23,247.77l3.08,22.9s5.42,3.15,60.05-26.72" transform="translate(0 0)" fill="#dda692"/><path d="M347.81,134.18a26.72,26.72,0,0,0,2.05,6.08,37.72,37.72,0,0,0,9,12.31c.38.35.95-.22.57-.57a37,37,0,0,1-8.83-12.15,25,25,0,0,1-2-5.89c-.09-.51-.87-.29-.78.22Z" transform="translate(0 0)" fill="#b78879"/><path d="M263.35,146.68a9,9,0,0,1,1.77,1.43,8.87,8.87,0,0,1,1.4,1.77,3.81,3.81,0,0,1,.7,1.83c0,.95-.89,1.73-1.58,2.26a15.05,15.05,0,0,1-2.88,1.68c-.58.27-1.18.53-1.79.75l.39.1a14.77,14.77,0,0,1-3.37-4.17,6.28,6.28,0,0,1-1-3.93,4,4,0,0,1,2-2.88c1.53-.78,3.09,0,4.2,1.1.36.37.93-.2.57-.57a4.2,4.2,0,0,0-5.89-.8,4.16,4.16,0,0,0-1.48,2.15c-1.13,3,1.17,6.37,3.15,8.51.32.35.65.68,1,1,.18.16.33.32.6.26a8.7,8.7,0,0,0,1.84-.76,15.87,15.87,0,0,0,3-1.77,4.58,4.58,0,0,0,1.89-2.49,3.14,3.14,0,0,0-.38-1.92A8.59,8.59,0,0,0,266,148a10.37,10.37,0,0,0-2.33-2,.4.4,0,0,0-.45.35A.4.4,0,0,0,263.35,146.68Z" transform="translate(0 0)" fill="#b78879"/></g><path d="M272.61,203.2c.28,1.3.53,2.61.74,3.93a24.39,24.39,0,0,1,.51,6.26.25.25,0,0,0,.5,0,24.46,24.46,0,0,0-.51-6.27c-.21-1.36-.46-2.71-.76-4.06-.07-.31-.55-.18-.48.14Z" transform="translate(0 0)" fill="#a56d5e"/></svg>