<svg id="a4c4ba11-1dd0-403a-87fe-3d43bcaae58b" data-name="Layer 1" xmlns="http://www.w3.org/2000/svg" xmlns:xlink="http://www.w3.org/1999/xlink" viewBox="0 0 481.33 388.61"><defs><clipPath id="ab1f4be2-1400-47b3-92f4-f5944c953cf5" transform="translate(0 4.19)"><path d="M44.71,345.06c-17.63,20.15-16,39.36-16,39.36H500s-7.21-23.24-52-51.45-101.83-33.41-108.1-34.31c0,0,4.19-19.5,6.53-29.43,0,0,6.43-16.08,5.56-23.39,0,0,7.6-9.06,9.06-19.29s5-17.25,5.55-24,5.26-9.65-11.4-43a49.1,49.1,0,0,1,1.46-16.37c2.34-9.36,4.39-17.54-4.38-24.85,0,0-1.76-4.39-11.69-26.6,0,0-11.7-24.85-14.91-29.53s-7.3-15.79-7.3-15.79S303.48-8.75,213.43,1.2,109,68.86,112.94,99.21s17,45,16.69,47.31,0,11,0,11-7.68,2.34-7.68,26.7c0,0,0,13.35,13,26.37,0,0,1,12.35-4.34,23s1,29.37,1,29.37-8.68,10.68-12,22.36c0,0-15.18,5.76-17.85,18.11,0,0-9,8.6-16,11.61Z" fill="none"/></clipPath><clipPath id="b9130d1a-e9b3-48ab-adb5-905a26b38852" transform="translate(0 4.19)"><path d="M327,158s-3.95,4.38,1.9,4.24l1.17.35s11.58,0,20.18-4.1c0,0,6.38-3.07,1.26-9.94,0,0-17.35-4.53-23,8.77Z" fill="none"/></clipPath><clipPath id="f535d542-55e5-417e-85ed-1d8296398ec6" transform="translate(0 4.19)"><path d="M232.14,176.2s17.11-11.93,27-12.41,19,5,19,5,2.95,1.62,2.95,2.58.43,2.2-4,2.19a10.2,10.2,0,0,0-3.28.53S273.37,179.54,232.14,176.2Z" fill="none"/></clipPath></defs><path d="M44.71,345.06c-17.63,20.15-16,39.36-16,39.36H481.3s2.57-21.41-42.2-49.62-92.91-35.24-99.18-36.14c0,0,4.19-19.5,6.53-29.43,0,0,6.43-16.08,5.56-23.39,0,0,7.6-9.06,9.06-19.29s5-17.25,5.55-24,5.26-9.65-11.4-43a49.1,49.1,0,0,1,1.46-16.37c2.34-9.36,4.39-17.54-4.38-24.85,0,0-1.76-4.39-11.69-26.6,0,0-11.7-24.85-14.91-29.53s-7.3-15.79-7.3-15.79S303.48-8.75,213.43,1.2,109,68.86,112.94,99.21s17,45,16.69,47.31,0,11,0,11-7.68,2.34-7.68,26.7c0,0,0,13.35,13,26.37,0,0,1,12.35-4.34,23s1,29.37,1,29.37-8.68,10.68-12,22.36c0,0-15.18,5.76-17.85,18.11,0,0-9,8.6-16,11.61Z" transform="translate(0 4.19)" fill="#6d4d2d"/><g clip-path="url(#ab1f4be2-1400-47b3-92f4-f5944c953cf5)"><path d="M312,45.09s-58.59,29.09-119.74,13.4c0,0-16,9.94-15.57,16.86L174.1,85.73S153.35,97,133,90.05c0,0-10.37-.69-6.48,2.25s16.43,7.26,26.37,7.26h19.45s1.3,19.88-.86,21.61l2.16-1.73s.43,16.43-3,18.16-18.37,26.16-18.37,26.16-11.88-6.4-21-6.4l-12.2,1.22L105.8,92.21l27.66-70.46L194.85-4.19,283.47-2l34.58,27.24,8.65,33.71A52.73,52.73,0,0,1,312,45.09Z" transform="translate(0 4.19)" fill="#1d1618"/></g><path d="M340.58,295.4s5.92,42.63-47.2,44.51C205.3,343,246,297,246,297l48,17.39c39.83-1.52,46.82-18,46.82-18" transform="translate(0 4.19)" fill="#4f3a27"/><path d="M338.65,295.4s-1.83,8.77-16.38,14.17c0,0,6.79,60.67,6,74.85H481.3S476.24,329.42,338.65,295.4Z" transform="translate(0 4.19)" fill="#383a49"/><path d="M351.45,144.3c-5.26-1.6-11.79-1-16.2,2.37a16,16,0,0,0-4.85,6.43c-.14.32.33.59.47.27a14.77,14.77,0,0,1,9.52-8.65,20.61,20.61,0,0,1,9.11-.31,15.18,15.18,0,0,1,1.8.41c.34.11.48-.42.15-.52Z" transform="translate(0 4.19)" fill="#3f2a1a"/><path d="M243,138.76l41.57,1.83s11.79.17,13,3.46.87,13,.87,13-2.6,1.39-4,0-21.84-6.93-21.84-6.93-20.45-2.25-29.63.35S219.4,166.6,219.4,166.6s-5.89,2.92-1.56-5.21a76.14,76.14,0,0,1,9.71-14A121.43,121.43,0,0,1,243,138.76Z" transform="translate(0 4.19)" fill="#1d1618"/><path d="M355.1,162.75c-.85,2.05-3.31,3.88-5.53,4.67-5,1.8-10.2,0-15.13-1.3l-5.82-1.52a.27.27,0,0,0-.15.52c4.1,1.07,8.25,2.46,12.42,3.22,4.6.84,9.87.39,13.22-3.24a7.61,7.61,0,0,0,1.51-2.21c.14-.32-.39-.46-.52-.14Z" transform="translate(0 4.19)" fill="#3f2a1a"/><path d="M291.06,210.4c-.06,0-.07,0,0,0-.19,0-.22-.27-.27-.29a.74.74,0,0,1-.09.14l-.32.37a77.3,77.3,0,0,1-5.91,5.54c-2.72,2.43-5.48,4.82-8.24,7.2-.27.23.12.62.38.39,4.23-3.64,8.48-7.27,12.52-11.11.61-.59,1.24-1.17,1.79-1.81.15-.17.47-.48.39-.74s-.31-.26-.5-.17,0,.62.27.47Z" transform="translate(0 4.19)" fill="#3f2a1a"/><path d="M299,198.87a40.71,40.71,0,0,0-3.94,4c-2.09,2.45-4.16,5.24-5,8.4-1.84,7,6.08,11.4,11.82,12.6a7.69,7.69,0,0,0,1.72.26c1.84-.06,3.62-1.43,4.93-2.57.44-.38-.2-1-.64-.64-1.66,1.44-3.37,2.55-5.54,2.12a18.6,18.6,0,0,1-8-3.49c-2.68-2.11-4.36-4.86-3.37-8.27a21.67,21.67,0,0,1,4.69-7.77,40.71,40.71,0,0,1,3.94-4.05c.44-.38-.21-1-.64-.64Z" transform="translate(0 4.19)" fill="#3f2a1a"/><path d="M306.43,222.23s4.26-4.26,8.52-4.88,10.63.75,10.76,4.13S307.31,223.85,306.43,222.23Z" transform="translate(0 4.19)" fill="#3f2a1a"/><path d="M347.26,210.4c3.52.84,7.47-.47,8.79-4.06s.57-8.31-1.2-11.58c-1.66-3.09-4.6-4.94-7.75-6.25-4-1.67-8.3-2.72-11.92-5.23-.48-.33-.93.45-.45.78a39.09,39.09,0,0,0,9.2,4.21c3,1.09,6.23,2.27,8.5,4.67,2.67,2.82,3.63,7.18,3.24,11-.27,2.61-1.61,4.88-4.26,5.57a8.34,8.34,0,0,1-3.91,0c-.57-.13-.81.74-.24.88Z" transform="translate(0 4.19)" fill="#3f2a1a"/><path d="M327,158s-3.95,4.38,1.9,4.24l1.17.35s11.58,0,20.18-4.1c0,0,6.38-3.07,1.26-9.94,0,0-17.35-4.53-23,8.77Z" transform="translate(0 4.19)" fill="#fff"/><path d="M129.05,178a27.77,27.77,0,0,1,.28-6.18c.42-2.64,1.42-6.46,4.56-6.91,2.46-.37,5,1.27,6.86,2.64.47.34.92-.44.46-.78-1.92-1.39-4.23-2.8-6.68-2.81a5,5,0,0,0-4,2.06c-1.95,2.57-2.3,6.25-2.39,9.37,0,.87,0,1.75,0,2.61,0,.58.94.58.9,0Z" transform="translate(0 4.19)" fill="#4f3a27"/><path d="M325.59,221.91c4.09,1.44,9.06,2,13.22.62,5.13-1.65,7.41-6.29,8.71-11.16,2-7.37-.41-15-5.36-20.59-4.23-4.81-8.88-8.78-12.46-14.22a42.42,42.42,0,0,1-6.65-15.65c-.81-4.52-.18-8.55.6-13,.1-.57-.78-.82-.88-.24-1.2,6.86-1.38,12.95,1.14,19.65a56.21,56.21,0,0,0,11.78,18.26c4.86,5.21,10.21,9.68,11.4,17.21.79,5-.57,12.69-4.4,16.43-4.27,4.17-11.62,3.64-16.86,1.8-.55-.19-.79.68-.24.87Z" transform="translate(0 4.19)" fill="#3f2a1a"/><path d="M356.58,119.83s-30,15.32-30.68,17.85c0,0-3.94.71-3.66,5.91a35.37,35.37,0,0,1,0,6.76s.15,1.26,1,.84,27-17.14,27-17.14l9.42-4.27A13.11,13.11,0,0,0,356.58,119.83Z" transform="translate(0 4.19)" fill="#1d1618"/><g clip-path="url(#b9130d1a-e9b3-48ab-adb5-905a26b38852)"><path d="M331.5,150.36a10.05,10.05,0,0,0-.6,13.58,8.65,8.65,0,0,0,12.75.52,10.05,10.05,0,0,0,.6-13.58A8.65,8.65,0,0,0,331.5,150.36Z" transform="translate(0 4.19)" fill="#52240f"/><path d="M332.66,150.75a6.83,6.83,0,0,0-.41,9.23,5.89,5.89,0,0,0,8.68.36,6.84,6.84,0,0,0,.41-9.23A5.89,5.89,0,0,0,332.66,150.75Z" transform="translate(0 4.19)" fill="#1d1618"/><path d="M339.66,150.31a2,2,0,0,0-.12,2.69,1.72,1.72,0,0,0,2.54.11,2,2,0,0,0,.12-2.7A1.72,1.72,0,0,0,339.66,150.31Z" transform="translate(0 4.19)" fill="#fff2ee"/></g><path d="M225.77,173c8.16-5.13,17.09-9.83,26.34-12.55,11.62-3.41,24.45.16,35.05,5.37.52.26,1-.52.46-.78-10.26-5-22.95-8.82-34.29-5.86-9.87,2.57-19.41,7.63-28,13-.49.31,0,1.09.46.78Z" transform="translate(0 4.19)" fill="#3f2a1a"/><path d="M232.14,176.2s17.11-11.93,27-12.41,19,5,19,5,2.95,1.62,2.95,2.58.43,2.2-4,2.19a10.2,10.2,0,0,0-3.28.53S273.37,179.54,232.14,176.2Z" transform="translate(0 4.19)" fill="#fff"/><path d="M288.44,175c-2.19,3.06-6.79,5.21-10.33,6.52-12.84,4.77-27.47,3.78-40.73,1.72-.57-.09-.81.79-.24.88,11.66,1.81,23.88,2.66,35.49,0,5.21-1.2,10.57-3.18,14.7-6.69a11.19,11.19,0,0,0,1.89-1.94c.34-.47-.44-.93-.78-.46Z" transform="translate(0 4.19)" fill="#3f2a1a"/><g clip-path="url(#f535d542-55e5-417e-85ed-1d8296398ec6)"><path d="M250,165a9.15,9.15,0,0,0-.47,12.86,9,9,0,0,0,12.75.6,9.15,9.15,0,0,0,.48-12.86A9,9,0,0,0,250,165Z" transform="translate(0 4.19)" fill="#52240f"/><path d="M251.15,165.4a6.23,6.23,0,0,0-.32,8.75,6.1,6.1,0,0,0,8.67.4,6.22,6.22,0,0,0,.32-8.74A6.1,6.1,0,0,0,251.15,165.4Z" transform="translate(0 4.19)" fill="#1d1618"/><path d="M258.14,165a1.83,1.83,0,0,0-.09,2.56,1.79,1.79,0,0,0,2.54.12,1.83,1.83,0,0,0,.09-2.56A1.79,1.79,0,0,0,258.14,165Z" transform="translate(0 4.19)" fill="#fff2ee"/></g><path d="M232.37,176.59c6.43-4.47,13.55-8.69,21-11.13,6-2,12.05-1.3,17.91.77a39.61,39.61,0,0,1,6.07,2.69c1.07.6,3,1.39,3.27,2.61a.45.45,0,0,0,.87-.24c-.58-2.34-5.6-4.19-7.51-5-5.62-2.36-12.12-3.86-18.18-2.47-8.54,2-16.76,7-23.9,12-.47.33,0,1.11.46.78Z" transform="translate(0 4.19)" fill="#1d1618"/><path d="M352,148.46c-6.82-2.07-15.88-1.77-21.05,3.7a14.26,14.26,0,0,0-2.58,3.8c-.54,1.16-1.82,1.75-2.49,2.85a.46.46,0,0,0,.79.46c.53-.89,1.5-1.36,2.12-2.15a10.37,10.37,0,0,0,.79-1.56,14.57,14.57,0,0,1,1.36-2,13.63,13.63,0,0,1,6.06-4.21,24.25,24.25,0,0,1,12.14-.6,23.64,23.64,0,0,1,2.62.6.45.45,0,0,0,.24-.87Z" transform="translate(0 4.19)" fill="#1d1618"/><path d="M363.51,217.2a97,97,0,0,0-15.06,1.38l-6.51,1.88S332.39,225,330.63,225s-7.6,1.81-10.9,3.16a29.14,29.14,0,0,1-9.63,2.26c-2.41,0-6.62,1.65-8.72,2.86s-3.31-.3-6.47,0-16.39,4.36-17.9,5.86-6.46,3-6.76,3.91a60.25,60.25,0,0,0-1.66,7.07c0,.9,4.06-1.35,5.72-2.11s10.55-2.25,14.52-2.4,4.88,2.25,11.35-.75,5.56-3.16,10.22-4.82,6.77-.6,10.38-1.35,6.47-3.76,9.85-4.66,6.1-2.41,8.43-2.41,2.64-.6,8.72-.9,12-.9,12-.9S363.23,227,363.51,217.2Z" transform="translate(0 4.19)" fill="#1d1618"/><path d="M353.91,242.47s-.94,30.11-22.83,31.87-46.4-7.18-51.84-19.61C279.24,254.73,352.23,239.72,353.91,242.47Z" transform="translate(0 4.19)" fill="#a07070"/><path d="M277.47,253.53l35.86-10c6.68-1.85,14.85-9.28,22.64-5.57,0,0,4.85-4.33,13.13-3.22s4.81,7.75,4.81,7.75-6.67,3.92-7.79,5-4.5,8.57-17.08,6a50.12,50.12,0,0,0-17,3.17C304.1,260,279.55,256.73,277.47,253.53Z" transform="translate(0 4.19)" fill="#46352c"/><path d="M318.81,285.67a34.84,34.84,0,0,1,6.95-3.76c4.12-1.71,9.14-2.92,13.34-.78.51.26,1-.52.45-.79-4.28-2.17-9.32-1.17-13.59.51a36,36,0,0,0-7.6,4c-.47.33,0,1.11.45.78Z" transform="translate(0 4.19)" fill="#3f2a1a"/><path d="M105.8,301.64,40,329.26S2.34,347.13,0,384.42H105.8Z" transform="translate(0 4.19)" fill="#222430"/><path d="M102.47,301.22l-9.4,83.2h76.49l-37-123.36S105.89,296.09,102.47,301.22Z" transform="translate(0 4.19)" fill="#383a49"/><path d="M178.48,207.44s5.52-10.9,10.35-12.11,17.67-7.59,16.86,4.53l10.56-.68s18.39-3.69,18.39,18c0,0,16.08-3.22,16.88,8.44v5.23s12.59-4.32,13.73,3.67,3.56,45.37-15.34,55.82c0,0,6.43,38.59-10.45,74.77l-2.2,19.29H145.8s11.25-32.56,2.81-59.89S131.11,311,131,261.06c0,0-6.41-25.37,1.56-34.21,0,0,3.15-15.68,2.75-23.72s4.82-26.93,4.82-26.93-.69-10.93,3.22-12.44S173,131.86,173,131.86l7.47-8.6s26.22-7.16,14,15.5l-21.31,33.88,1.61,44.56Z" transform="translate(0 4.19)" fill="#896846"/><path d="M89.68,345.06" transform="translate(0 4.19)" fill="#684d32"/><path d="M340.58,295.4l82.32,89h58.4S479.63,329.62,340.58,295.4Z" transform="translate(0 4.19)" fill="#222430"/><path d="M175.19,129.78h15c.08,0-.16,0,.12,0a6.27,6.27,0,0,0,1.56,0c2.6-.43,4.12-2.6,4.8-5a.46.46,0,0,0-.88-.24c-.6,2.17-2,4.14-4.36,4.4a16,16,0,0,1-1.83,0H175.19a.45.45,0,0,0,0,.9Z" transform="translate(0 4.19)" fill="#4f3a27"/><path d="M235.56,216a251.31,251.31,0,0,0-42.1,10.1c-3.4,1.12-6.91,1.54-10.12,3.28a16.12,16.12,0,0,0-8.6,13.37c0,.58.86.58.91,0,1-12.82,13.7-14.55,23.63-17.52a259.56,259.56,0,0,1,36.52-8.36c.57-.08.33-.95-.24-.87Z" transform="translate(0 4.19)" fill="#4f3a27"/><path d="M252.82,229.4A133.58,133.58,0,0,0,231.08,235c-2.54.84-5.07,1.72-7.57,2.64a20.74,20.74,0,0,1-2.28.82c-3.21.41-6.27.09-9.46,1.11-3.92,1.24-7.13,3.88-7.41,8.22a49.39,49.39,0,0,0,.59,10.79,9.35,9.35,0,0,0,.7,2.75c.26.51,1,.06.78-.46a7.49,7.49,0,0,1-.52-2,54.25,54.25,0,0,1-.65-8.73c0-2.84.19-5.41,2.45-7.4a13.44,13.44,0,0,1,5.9-2.7,28.11,28.11,0,0,1,5.48-.66,19.47,19.47,0,0,0,2.29,0,14.6,14.6,0,0,0,2.54-.93c2.25-.83,4.53-1.62,6.81-2.38a134.86,134.86,0,0,1,22.33-5.76c.58-.08.33-1-.24-.87Z" transform="translate(0 4.19)" fill="#4f3a27"/><path d="M245.37,257c1.9.57,4.95,1.83,5.26,4.07a13.29,13.29,0,0,1-.16,3.67,13.46,13.46,0,0,1-1.32,4.35,5.08,5.08,0,0,1-3.78,2.91c-.58.08-.33.95.24.88,3.49-.48,5-4.18,5.62-7.24a16.39,16.39,0,0,0,.31-4.42,4.71,4.71,0,0,0-2.44-3.48,13.17,13.17,0,0,0-3.49-1.61.45.45,0,0,0-.24.87Z" transform="translate(0 4.19)" fill="#4f3a27"/><path d="M251.46,261.29a7.43,7.43,0,0,0,1.13-3.29,11.22,11.22,0,0,0-2.3-7.86c-.34-.47-1.12,0-.78.46a10.42,10.42,0,0,1,2.18,7.39,6.69,6.69,0,0,1-1,2.84c-.33.48.45.93.78.46Z" transform="translate(0 4.19)" fill="#4f3a27"/><path d="M262.61,251.49a10,10,0,0,1-.41.94,22,22,0,0,1-1.26,2.34,10.42,10.42,0,0,1-4.63,4.47,5,5,0,0,1-3.87-.08c-.53-.23-1,.55-.45.78,5,2.15,8.88-2.69,10.84-6.73.24-.49.46-1,.65-1.48s-.67-.78-.87-.24Z" transform="translate(0 4.19)" fill="#4f3a27"/><path d="M247.87,271.17a166.68,166.68,0,0,1,2.8,27.65.46.46,0,0,0,.91,0,168.52,168.52,0,0,0-2.84-27.89c-.1-.57-1-.33-.87.24Z" transform="translate(0 4.19)" fill="#4f3a27"/><path d="M249.63,275l9.58-1.81,1.39-.26c.57-.11.33-1-.24-.88l-9.59,1.82-1.38.26c-.57.11-.33,1,.24.87Z" transform="translate(0 4.19)" fill="#4f3a27"/><path d="M205.49,198.61,184.37,211c-3.16,1.85-6.27,3.84-9.49,5.57a25.83,25.83,0,0,1-3.52,1.46q-2.7,1-5.46,1.76a29.06,29.06,0,0,0-5,1.41c-6.37,3.12-7.13,11.83-5.39,17.79a.45.45,0,0,0,.87-.24c-1.81-6.19-.65-15.46,6.73-17.29,4.13-1,8.63-2.12,12.39-4.21,7.54-4.19,14.9-8.75,22.34-13.12l8.1-4.76a.45.45,0,0,0-.46-.78Z" transform="translate(0 4.19)" fill="#4f3a27"/></svg>